<svg xmlns="http://www.w3.org/2000/svg" viewBox="0 0 960 620" role="img" aria-label="Learners studying online courses">
  <defs>
    <linearGradient id="bg" x1="0" y1="0" x2="960" y2="620">
      <stop stop-color="#E7FBFF"/>
      <stop offset=".55" stop-color="#F2EEFF"/>
      <stop offset="1" stop-color="#FFF4DF"/>
    </linearGradient>
    <linearGradient id="screen" x1="170" y1="116" x2="779" y2="495">
      <stop stop-color="#152238"/>
      <stop offset="1" stop-color="#283C63"/>
    </linearGradient>
  </defs>
  <rect width="960" height="620" rx="48" fill="url(#bg)"/>
  <circle cx="130" cy="112" r="54" fill="#19C7D4" opacity=".28"/>
  <circle cx="818" cy="126" r="84" fill="#7C5CFF" opacity=".18"/>
  <circle cx="805" cy="498" r="72" fill="#FFB84D" opacity=".26"/>
  <rect x="154" y="104" width="652" height="390" rx="34" fill="url(#screen)"/>
  <rect x="190" y="144" width="306" height="198" rx="24" fill="#19C7D4" opacity=".95"/>
  <path d="m316 201 87 43-87 43v-86Z" fill="#fff"/>
  <rect x="526" y="151" width="226" height="26" rx="13" fill="#fff" opacity=".92"/>
  <rect x="526" y="203" width="180" height="18" rx="9" fill="#fff" opacity=".52"/>
  <rect x="526" y="239" width="208" height="18" rx="9" fill="#fff" opacity=".38"/>
  <rect x="526" y="275" width="126" height="18" rx="9" fill="#fff" opacity=".38"/>
  <rect x="194" y="378" width="558" height="58" rx="18" fill="#fff" opacity=".12"/>
  <rect x="222" y="397" width="180" height="20" rx="10" fill="#fff" opacity=".68"/>
  <rect x="456" y="397" width="80" height="20" rx="10" fill="#FFB84D"/>
  <rect x="560" y="397" width="144" height="20" rx="10" fill="#19C7D4"/>
  <rect x="284" y="500" width="392" height="28" rx="14" fill="#20304C" opacity=".22"/>
  <g transform="translate(92 340)">
    <circle cx="76" cy="46" r="42" fill="#FFB84D"/>
    <rect x="26" y="91" width="104" height="120" rx="44" fill="#7C5CFF"/>
    <path d="M34 129h88" stroke="#fff" stroke-width="14" stroke-linecap="round" opacity=".85"/>
  </g>
  <g transform="translate(746 330)">
    <circle cx="78" cy="48" r="43" fill="#19C7D4"/>
    <rect x="22" y="96" width="116" height="126" rx="46" fill="#253C5B"/>
    <path d="M46 139h68" stroke="#fff" stroke-width="14" stroke-linecap="round" opacity=".8"/>
  </g>
</svg>
